<svg width="32" height="33" viewBox="0 0 32 33" fill="none" xmlns="http://www.w3.org/2000/svg">
<path d="M16 0C11.6547 0 11.1098 0.0190105 9.4032 0.0992769C7.70019 0.179396 6.53711 0.458363 5.51936 0.866179C4.46722 1.28785 3.57494 1.85207 2.68547 2.76934C1.79595 3.6866 1.24882 4.60687 0.839979 5.69189C0.444426 6.74139 0.174007 7.94082 0.0962208 9.69705C0.0183867 11.457 0 12.0189 0 16.5C0 20.9811 0.0183867 21.543 0.0962208 23.3029C0.174007 25.0592 0.444426 26.2586 0.839979 27.3081C1.24887 28.3931 1.79599 29.3133 2.68547 30.2307C3.57498 31.1479 4.46722 31.7122 5.51936 32.1338C6.53711 32.5416 7.70019 32.8206 9.4032 32.9007C11.1098 32.981 11.6547 33 16 33C20.3453 33 20.8902 32.981 22.5968 32.9007C24.2998 32.8206 25.4629 32.5416 26.4806 32.1338C27.5327 31.7122 28.425 31.1479 29.3146 30.2307C30.204 29.3133 30.7512 28.3931 31.1601 27.3081C31.5555 26.2586 31.826 25.0592 31.9037 23.3029C31.9816 21.543 32 20.9811 32 16.5C32 12.0189 31.9816 11.457 31.9037 9.69705C31.826 7.94082 31.5555 6.74139 31.1601 5.69189C30.7512 4.60687 30.204 3.6866 29.3146 2.76934C28.425 1.85207 27.5327 1.28785 26.4806 0.866179C25.4629 0.458363 24.2998 0.179396 22.5968 0.0992769C20.8902 0.0190105 20.3453 0 16 0ZM16 2.97295C20.2722 2.97295 20.7782 2.9898 22.4654 3.06918C24.0254 3.14252 24.8726 3.41132 25.4363 3.63729C26.1832 3.93664 26.7162 4.29415 27.276 4.87154C27.836 5.44893 28.1827 5.99861 28.4729 6.76876C28.692 7.35017 28.9527 8.22387 29.0238 9.83258C29.1008 11.5725 29.1171 12.0943 29.1171 16.5C29.1171 20.9057 29.1008 21.4275 29.0238 23.1674C28.9527 24.7762 28.692 25.6498 28.4729 26.2312C28.1827 27.0014 27.836 27.5511 27.276 28.1284C26.7162 28.7058 26.1832 29.0634 25.4364 29.3627C24.8726 29.5887 24.0253 29.8575 22.4654 29.9308C20.7785 30.0102 20.2725 30.027 16 30.027C11.7275 30.027 11.2216 30.0102 9.53463 29.9308C7.97461 29.8575 7.12744 29.5887 6.56369 29.3627C5.81679 29.0634 5.28381 28.7058 4.72397 28.1284C4.16408 27.5511 3.81735 27.0014 3.52706 26.2312C3.30795 25.6498 3.04734 24.7761 2.97618 23.1674C2.8992 21.4275 2.88286 20.9057 2.88286 16.5C2.88286 12.0943 2.8992 11.5725 2.97618 9.83258C3.04734 8.22382 3.30795 7.35017 3.52706 6.76881C3.81735 5.99856 4.16408 5.44893 4.72392 4.87159C5.28381 4.29415 5.81683 3.93664 6.56364 3.63729C7.12744 3.41132 7.97466 3.14252 9.53463 3.06918C11.2218 2.9898 11.7278 2.97295 16 2.97295" fill="#100F0D"/>
<path d="M16 22C13.0544 22 10.6666 19.5376 10.6666 16.5C10.6666 13.4624 13.0544 11 16 11C18.9455 11 21.3333 13.4624 21.3333 16.5C21.3333 19.5376 18.9455 22 16 22ZM16 8.02702C11.4623 8.02702 7.78378 11.8205 7.78378 16.5C7.78378 21.1795 11.4623 24.973 16 24.973C20.5377 24.973 24.2162 21.1795 24.2162 16.5C24.2162 11.8205 20.5377 8.02702 16 8.02702V8.02702ZM26.4609 7.69225C26.4609 8.78582 25.6012 9.67224 24.5408 9.67224C23.4805 9.67224 22.6208 8.78582 22.6208 7.69225C22.6208 6.59874 23.4805 5.71222 24.5408 5.71222C25.6012 5.71222 26.4609 6.59874 26.4609 7.69225" fill="#100F0D"/>
</svg>
